<svg version="1.1" xmlns="http://www.w3.org/2000/svg" xmlns:xlink="http://www.w3.org/1999/xlink" width="65.36000061035156" height="30.940000534057617"><defs></defs><g transform="translate(-36.011993408203125,17.940000534057617)"><rect fill="rgb(255,255,255)" stroke="none" x="0" y="0" width="65.36000061035156" height="30.940000534057617" fill-opacity="0" transform="translate(36.011993408203125,-17.940000534057617)"></rect><g transform="translate(32.68199634552002,15.469999313354492) rotate(0,0,0) translate(-32.68199634552002,-15.469999313354492) matrix(1,0,0,1,32.68199634552002,15.469999313354492)"><path fill="rgb(0,0,0)" fill-opacity="1" d="M15.39-16.04L15.39-16.04L17.21-16.09L18.93-16.09Q21.27-17.97 24.60-21.29Q27.92-24.62 29.28-26.60L29.28-26.60L30.89-28.94Q31.10-28.94 31.10-28.37L31.10-28.37Q31.10-26.03 27.40-21.97L27.40-21.97L22.00-16.25L28.18-16.87Q29.85-20.46 31.82-24.18Q33.80-27.90 34.29-28.86Q34.79-29.82 35.28-30.78Q35.78-31.75 36.40-32.58Q37.02-33.41 37.57-33.41Q38.12-33.41 38.92-33.07Q39.73-32.73 39.73-32.37L39.73-32.37Q39.05-31.38 38.25-30.03Q37.44-28.68 36.50-27.12L36.50-27.12Q27.30-11.73 27.30-5.54L27.30-5.54Q27.30-4.81 27.72-3.72L27.72-3.72Q28.24-2.47 28.03-2.47L28.03-2.47Q26.99-2.47 26.34-3.74Q25.69-5.02 25.69-7.02Q25.69-9.02 27.82-15.57L27.82-15.57Q27.09-15.57 23.82-15.05Q20.54-14.53 19.76-14.33L19.76-14.33Q11.23-6.94 6.45-6.94L6.45-6.94Q4.42-6.94 3.33-8.29L3.33-8.29Q3.54-8.35 3.59-8.35L3.59-8.35L5.10-8.09Q8.94-8.09 16.64-14.12L16.64-14.12L16.64-14.17L13.83-14.07Q12.58-14.07 11.67-14.77Q10.76-15.47 10.76-16.51L10.76-16.51L10.87-16.61Q10.87-16.67 10.92-16.67L10.92-16.67L11.08-16.56Q11.60-16.04 15.39-16.04ZM54.18-32.32Q60.68-32.32 64.69-30.68Q68.69-29.04 68.69-26.31Q68.69-23.58 66.01-21.27Q63.34-18.95 59.28-17.63Q55.22-16.30 51.17-16.30L51.17-16.30Q49.76-16.30 48.62-16.46L48.62-16.46Q54.81-6.47 57.88-6.47L57.88-6.47Q59.07-6.47 59.38-7.77L59.38-7.77L59.80-9.96Q60.32-9.59 60.32-8.53Q60.32-7.46 59.36-6.42Q58.40-5.38 56.78-5.38Q55.17-5.38 51.97-8.68Q48.78-11.99 45.50-17.19L45.50-17.19Q41.34-10.11 41.34-6.68L41.34-6.68Q41.34-5.75 41.96-5.38L41.96-5.38Q41.96-5.23 41.70-5.23L41.70-5.23Q40.61-5.23 40.61-8.24L40.61-8.24Q40.61-12.87 44.30-19.21L44.30-19.21Q43.47-20.72 43.47-21.14L43.47-21.14Q43.47-22.13 44.82-22.13L44.82-22.13Q45.40-22.13 45.66-21.50L45.66-21.50Q50.02-28.05 54.55-30.24L54.55-30.24Q54.70-30.29 54.94-30.29Q55.17-30.29 55.64-30.03Q56.11-29.77 56.11-29.54Q56.11-29.30 55.95-29.30L55.95-29.30L53.56-26.91Q50.54-23.84 46.90-19.27L46.90-19.27Q47.68-17.86 48.23-17.52Q48.78-17.19 50.28-17.19L50.28-17.19Q53.82-17.19 57.88-18.69Q61.93-20.20 64.69-22.44Q67.44-24.67 67.44-26.70Q67.44-28.73 64.32-29.90Q61.20-31.07 56.11-31.07L56.11-31.07Q42.74-31.07 34.53-25.35L34.53-25.35Q33.85-24.93 33.49-24.93L33.49-24.93Q32.66-24.93 32.66-25.77L32.66-25.77Q32.66-27.53 36.17-29.07Q39.68-30.60 44.43-31.43Q49.19-32.27 53.51-32.32L53.51-32.32L54.18-32.32Z"></path></g></g></svg>
